<svg xmlns="http://www.w3.org/2000/svg" viewBox="0 0 175.41 97.27"><defs><style>.cls-1{fill:#86a9ce;}.cls-2{fill:#2f3e4a;}</style></defs><g id="Capa_2" data-name="Capa 2"><g id="Capa_1-2" data-name="Capa 1"><path class="cls-1" d="M95.72,59.07c0,9.51.06,17.94,0,26.37,0,2.37.79,3.23,3.19,3.22,15.5-.07,31-.12,46.49,0,3.79,0,3.52-2.16,3.52-4.65q0-18.81,0-37.63c0-8.19.17-8.35,8.16-8.87.48-1.57-1-1.75-1.76-2.25-12.37-8.36-24.8-16.64-37.18-25-1.88-1.27-3.39-2.45-5.88-.73-12.91,8.87-26,17.54-38.94,26.3a7.33,7.33,0,0,0-1.09,1.21c8.35,1.78,8.35,1.78,8.35,10.61q0,21.3-.07,42.61c0,2.15.41,4.56-2.29,5.67-3,1.24-5.29-.89-5.32-5.34-.07-13.1-.28-26.2.09-39.29.14-4.89-1.14-6.71-6.06-6-2.53.36-5.15,0-7.73.07-2.13,0-4.16-.12-5-2.56-.86-2.69.88-4,2.82-5.32q17.69-11.82,35.34-23.7c6.12-4.1,12.34-8.08,18.35-12.35,2.85-2,5.16-2,8,0C136.31,13.35,154,25.11,171.57,36.92c2.15,1.44,4.68,2.83,3.57,6-1,3-3.78,2.39-6.12,2.43-12.41.17-12.41.16-12.41,12.72,0,10.7-.15,21.4,0,32.1.09,4.55-1.66,6.23-6.16,6.2q-28.22-.19-56.44,0c-4.2,0-6-1.51-6-5.83.13-12.35,0-24.72.07-37.08.06-5.43,2.78-6.78,7.49-3.77,5.27,3.38,10.51,6.83,15.58,10.5,2.47,1.79,4.29,2,6.85.09,5.21-3.8,10.64-7.29,16.07-10.77,4.35-2.78,7.13-1.42,7.21,3.64.15,8.86,0,17.71.07,26.57,0,2.72-.9,5-3.85,5s-3.93-2.27-3.92-5c0-6.44,0-12.89,0-20.5-5.38,3.49-10.19,6.33-14.68,9.6-3,2.19-5.39,2.28-8.42,0C106.11,65.65,101.38,62.8,95.72,59.07Z"/><path class="cls-2" d="M60.93,91.07c-2-5.31-6.31-8.09-8.57-9.76-3.78-2.82-18.64-25.07-19.69-27.8a6,6,0,0,1-.48-4.17c.87-2.55,3.91-3.3,7-4.6,10.66-4.54,15.62-15,13.29-26.2C50.17,7.67,35,5.28,32.18,4.71c-3.28-.66-4.06-.28-26.75-.12L0,4.62c.06,1.65.15,4.13.23,7.14C.51,21.73.44,27.38.47,35,.53,51.24,1,50.07.93,64.65c0,5.72-.08,8.2-.07,16.94,0,6.61,0,12,.08,15.68l19.72-.15a28,28,0,0,1-2.48-5.4,31.24,31.24,0,0,1-1.41-6.44,106.11,106.11,0,0,1-.9-10.58c-.35-8.74-.45-15.06-.45-15.06-.05-3.18-.1-7.46-.12-12.54,5.33,9.27,9.44,16.84,12.24,22.09,3.73,7,4.68,9,7.34,12.34,4,5,7.92,10.5,15,13.41a27.8,27.8,0,0,0,12.16,2A17.14,17.14,0,0,0,60.93,91.07ZM19.79,42.71c-.35,0-.69.06-1,0a2.86,2.86,0,0,1-2.38-1.28,7.4,7.4,0,0,1-.64-3.06c0-.36-.11-.72-.13-1.09,0-.53,0-1.06-.07-1.59,0-.73,0-1.45,0-2.17s0-1.72,0-2.57,0-1.88,0-2.81,0-1.92,0-2.88,0-1.86,0-2.78V20c0-.7,0-1.39,0-2.09,0-.49,0-1,0-1.49a5.78,5.78,0,0,0,0-.72c-.12-1.09,1.27-2.74,4.61-3,8.3-.67,15.66,3.72,17,10C39.25,33.16,24.8,42.15,19.79,42.71Z"/></g></g></svg>